<svg id="Layer_1" data-name="Layer 1" xmlns="http://www.w3.org/2000/svg" viewBox="0 0 665.13 733.47"><defs><style>.cls-1,.cls-4{fill:#da4646;}.cls-2,.cls-3{fill:#304263;}.cls-3{font-size:122.46px;font-family:AXIS-ExtraBold, AXIS;font-weight:800;letter-spacing:0.03em;}.cls-4{letter-spacing:0.02em;}</style></defs><title>full-mark</title><path class="cls-1" d="M817.92,298.13c-13.64-5.78-50-7.12-60.8-7.4-.89,0-1.78-.05-2.67-.05h-.36A149.27,149.27,0,0,0,727.37,293h0c-1.29.23-2.53.46-3.75.7-14,2.62-28.69,5.23-36.42,6.85a37.62,37.62,0,0,1-15.53,0c-7.72-1.62-22.43-4.23-36.42-6.84-1.22-.25-2.46-.48-3.74-.71h0a150.17,150.17,0,0,0-26.71-2.31h-.39l-2.59.05c-10.68.27-47.19,1.61-60.86,7.4a4.37,4.37,0,0,0-2.63,3.83c-.17,4.29-.24,13.12,1.58,20.12a3.12,3.12,0,0,0,3.4,2.3c3.56-.41,10-1.14,14.36-1.44-1.86,20.18,2.65,45.54,26.84,57.87A56.44,56.44,0,0,0,610.13,387a57.84,57.84,0,0,0,57.57-51.9,24.61,24.61,0,0,1,23.44,0c1.79,15.52,9,29.24,21.1,39A58.13,58.13,0,0,0,748.7,387a56.44,56.44,0,0,0,25.67-6.14c24.2-12.33,28.7-37.69,26.84-57.87,4.39.3,10.81,1,14.36,1.44a3.12,3.12,0,0,0,3.4-2.3c1.83-7,1.75-15.83,1.58-20.12A4.35,4.35,0,0,0,817.92,298.13ZM599.11,374a44.44,44.44,0,0,1-9.4-3.51,35.63,35.63,0,0,1-9.47-6.86,34.65,34.65,0,0,1-6.68-9.26,42.16,42.16,0,0,1-3.65-10.92c-3.55-17.63,2.48-35.74,2.48-35.74,12.81-4.79,26.34-6,38.67-5.41a122.58,122.58,0,0,1,13.36,1.24c4.93.69,9.47,1.58,13.43,2.48a130.07,130.07,0,0,1,16.57,4.89,64.92,64.92,0,0,1,1.37,6.4v0C662.51,357.67,628.69,381.47,599.11,374Zm189.81-30.55a42.16,42.16,0,0,1-3.65,10.92,34.65,34.65,0,0,1-6.68,9.26,35.63,35.63,0,0,1-9.47,6.86,44.24,44.24,0,0,1-9.4,3.51c-29.58,7.44-63.4-16.36-56.68-56.65v0a62.25,62.25,0,0,1,1.38-6.4A129.53,129.53,0,0,1,721,306.05c4-.9,8.51-1.79,13.43-2.48a122.58,122.58,0,0,1,13.36-1.24c12.33-.55,25.86.62,38.67,5.41C786.44,307.74,792.47,325.85,788.92,343.48Z" transform="translate(-346.79 -42)"/><path class="cls-2" d="M759.1,431.54c-29.11-29.11-81.33-30-81.33-30s-52.22.89-81.34,30-45.88-55.17-45.88-55.17,16.8,194.49,125.7,198.11v.17c.52,0,1-.08,1.52-.08s1,.08,1.51.08v-.17C788.18,570.86,805,376.37,805,376.37S788.22,460.66,759.1,431.54Zm-44.11,44c-17.58,17.57-35.38-1.7-17.81-19.26,8-8-19.41-8.84-19.41-8.84s-27.44.81-19.42,8.84c17.57,17.56-.23,36.83-17.8,19.26-27.83-27.82-15.56-51,37.22-51S742.81,447.69,715,475.51Z" transform="translate(-346.79 -42)"/><path class="cls-2" d="M845.57,165.17a406.83,406.83,0,0,0-8.5-49.27,98.45,98.45,0,0,1-8.85,40.22c0-41.27-32-77.7-70.93-91.87.58.68,1.19,1.31,1.76,2A117.07,117.07,0,0,1,768,79a122.78,122.78,0,0,1,7.23,14.31,136.92,136.92,0,0,1,5,14.8,139.93,139.93,0,0,1,3.07,14.78,153.54,153.54,0,0,1,1.52,26.39,168.21,168.21,0,0,1-1.59,18.47c-.62,4.41-1.08,6.91-1.08,6.91s.17-2.54.26-7a166.91,166.91,0,0,0-.59-18.31,148.11,148.11,0,0,0-4.46-25.24,136.48,136.48,0,0,0-4.53-13.56,130,130,0,0,0-6.35-13.27,113.37,113.37,0,0,0-7.93-11.9,103.66,103.66,0,0,0-9.23-10.29,89.35,89.35,0,0,0-19.3-14.23c-1.38-.74-2.73-1.4-4-2,12.66,16,22.19,36.67,23.45,57.11C737,101.59,731.19,83.29,715.4,71.06c-26.25-20.35-62.91-18-96-15.27-30.63,2.56-64.66,3.53-89.28-13.79.83,1.18,1.68,2.38,2.6,3.63a99.67,99.67,0,0,0,16.6,17.87,61.91,61.91,0,0,0,5.32,3.91c2.16,1.42,4.15,2.55,6.06,3.56a85.57,85.57,0,0,0,13.25,5.46c18.78,5.85,39.55,6.31,54.85,7.28,7.76.41,14.31,1.79,18.38,3.9a22.63,22.63,0,0,1,4.41,2.85L653,91.7l-1.49-1.07a22.37,22.37,0,0,0-4.61-2.26c-4.16-1.57-10.49-2.15-18.07-1.66-15.28.77-36,2.93-57.16-1A95.94,95.94,0,0,1,556,81.34c-2.7-1-5.18-2.13-7.29-3.2a71.18,71.18,0,0,1-7-4A104.11,104.11,0,0,1,525.18,61a126.51,126.51,0,0,0,9.46,12,97.11,97.11,0,0,0,16.59,14.89,73.19,73.19,0,0,0,23.06,10.87c17.29,4.93,36.21,4.72,50.32,6.12a88.19,88.19,0,0,1,16.83,3.13,45.49,45.49,0,0,1,6,2.27,46.47,46.47,0,0,0-6.24-1.47,87,87,0,0,0-16.76-.94c-13.84.36-32.68,3.14-52.18.28a84.64,84.64,0,0,1-27.84-9,111.69,111.69,0,0,1-21.12-14.52c-.17-.14-.31-.28-.48-.43.11.72.23,1.44.35,2.15l.65-.52c-.08-.16,1.39,2.14,3.16,4.5a77.84,77.84,0,0,0,9.32,10.4,85.77,85.77,0,0,0,16.28,12,92.24,92.24,0,0,0,10.46,5.07,75.28,75.28,0,0,0,11.35,3.44,152.07,152.07,0,0,0,24.34,3c8,.47,15.55,1,22,1.6a195.69,195.69,0,0,1,21.28,3,193.53,193.53,0,0,0-21.36,0c-6.39.28-13.84.82-21.84,1.47a159.1,159.1,0,0,1-25.79.44,84.79,84.79,0,0,1-13.53-2.12,103.06,103.06,0,0,1-12.5-4A101.31,101.31,0,0,1,532.09,117a129.73,129.73,0,0,0,34.66,48.15c-23.59-2.63-39.14-6.68-52-17.72a110.69,110.69,0,0,0,8.94,19,84.46,84.46,0,0,0,10.84,14.33A71.74,71.74,0,0,0,546.6,191a58.1,58.1,0,0,0,9.94,5.37c2.53,1.07,4,1.55,4,1.55s-1.55-.3-4.2-1.08a60.47,60.47,0,0,1-10.69-4.28,75.29,75.29,0,0,1-13.63-9.14A89.76,89.76,0,0,1,519,169.73a114.16,114.16,0,0,1-10.06-15.67c0,8.73-.66,18.73-.24,22.51,1.45,13.23,3.71,26.36,5.65,39.53,3.76,25.41,6.93,46.34,19.5,69.66-3.42-6.35,17.39-37.55,21.16-43.47a142.07,142.07,0,0,1,32.09-35.65c26.51-20.74,59.76-30.07,93.09-30.63,32.56-.56,64.1,9.61,89.45,30.2,21.77,17.67,51,51.19,52.59,80.31,14.71-27.06,23.25-61.33,24.71-91.94A189,189,0,0,0,845.57,165.17Z" transform="translate(-346.79 -42)"/><text class="cls-3" transform="translate(0 682.04) scale(0.83 1)">Squint<tspan class="cls-4" x="513.61" y="0">Dev</tspan></text></svg>