<svg id="Layer_1" data-name="Layer 1" xmlns="http://www.w3.org/2000/svg" viewBox="0 0 475.79 748.65"><defs><style>.cls-1{fill:#9d8d59;}.cls-2{fill:#9d8d59;}</style></defs><title>head-only</title><path class="cls-1" d="M874.75,372c-19.17-8.13-70.33-10-85.45-10.4-1.26,0-2.51-.07-3.76-.08H785a211,211,0,0,0-37.56,3.25h0c-1.82.32-3.56.65-5.27,1-19.67,3.68-40.34,7.35-51.19,9.63a53.17,53.17,0,0,1-21.83,0c-10.86-2.28-31.53-5.95-51.19-9.63-1.72-.34-3.46-.67-5.27-1h0a211.81,211.81,0,0,0-37.55-3.25h-.55c-1.21,0-2.42,0-3.64.08-15,.38-66.33,2.25-85.54,10.4a6.1,6.1,0,0,0-3.68,5.38c-.25,6-.35,18.45,2.21,28.27a4.41,4.41,0,0,0,4.78,3.25c5-.59,14-1.6,20.19-2-2.62,28.37,3.71,64,37.71,81.34a79.43,79.43,0,0,0,36.09,8.63A81.72,81.72,0,0,0,634,478.69c17-13.7,27.14-33,29.66-54.8a34.56,34.56,0,0,1,32.95,0c2.51,21.82,12.65,41.1,29.65,54.8a81.72,81.72,0,0,0,51.25,18.14,79.43,79.43,0,0,0,36.09-8.63c34-17.33,40.33-53,37.71-81.34,6.18.44,15.19,1.45,20.19,2a4.41,4.41,0,0,0,4.78-3.25c2.56-9.82,2.46-22.24,2.21-28.27A6.09,6.09,0,0,0,874.75,372ZM567.21,478.67A62,62,0,0,1,554,473.73a49.92,49.92,0,0,1-13.31-9.63,48.66,48.66,0,0,1-9.39-13,59.21,59.21,0,0,1-5.13-15.34c-5-24.78,3.48-50.24,3.48-50.24,18-6.73,37-8.37,54.36-7.6a173.26,173.26,0,0,1,18.78,1.74c6.92,1,13.31,2.23,18.87,3.49A183,183,0,0,1,644.94,390a88,88,0,0,1,1.94,9v.05C656.32,455.68,608.79,489.13,567.21,478.67ZM834,435.74a60,60,0,0,1-5.13,15.34,48.92,48.92,0,0,1-9.4,13,49.92,49.92,0,0,1-13.31,9.63A62,62,0,0,1,793,478.67c-41.58,10.46-89.11-23-79.67-79.62V399a88,88,0,0,1,1.94-9,183,183,0,0,1,23.28-6.87c5.57-1.26,12-2.52,18.88-3.49a172.84,172.84,0,0,1,18.77-1.74c17.33-.77,36.36.87,54.36,7.6C830.51,385.5,839,411,834,435.74Z" transform="translate(-439.88 -12)"/><path class="cls-2" d="M792.08,559.51c-40.92-40.92-114.32-42.16-114.32-42.16s-73.4,1.24-114.32,42.16S499,482,499,482s23.61,273.36,176.67,278.45v.24c.73,0,1.41-.11,2.13-.12s1.4.12,2.13.12v-.24C833,755.32,856.56,482,856.56,482S833,600.43,792.08,559.51Zm-62,61.8c-24.69,24.69-49.71-2.39-25-27.08,11.28-11.27-27.28-12.41-27.28-12.41S639.2,583,650.48,594.23c24.68,24.69-.34,51.77-25,27.08-39.11-39.11-21.87-71.72,52.31-71.72S769.18,582.2,730.07,621.31Z" transform="translate(-439.88 -12)"/><path class="cls-2" d="M913.61,185.11a573.15,573.15,0,0,0-11.94-69.24,138.32,138.32,0,0,1-12.45,56.52c0-58-44.92-109.2-99.69-129.11.82.95,1.67,1.83,2.47,2.82A161.85,161.85,0,0,1,804.58,64,172,172,0,0,1,814.75,84.1a194.79,194.79,0,0,1,7.07,20.8,200.15,200.15,0,0,1,4.32,20.77,215.89,215.89,0,0,1,2.12,37.1,236.59,236.59,0,0,1-2.22,26c-.87,6.2-1.52,9.72-1.52,9.72s.23-3.58.36-9.82a231.79,231.79,0,0,0-.83-25.74,208.74,208.74,0,0,0-6.27-35.47,191.07,191.07,0,0,0-6.37-19.06,181.44,181.44,0,0,0-8.92-18.65A161.46,161.46,0,0,0,791.35,73a146.87,146.87,0,0,0-13-14.46,125.88,125.88,0,0,0-27.14-20c-1.93-1-3.83-2-5.68-2.82,17.81,22.44,31.2,51.54,33,80.26C761,95.76,752.86,70,730.66,52.84c-36.9-28.6-88.42-25.33-134.95-21.45C552.65,35,504.83,36.35,470.23,12c1.17,1.66,2.36,3.34,3.65,5.1,6.15,8.21,13.73,17.31,23.34,25.12a86.59,86.59,0,0,0,7.47,5.49c3,2,5.83,3.59,8.52,5a120.3,120.3,0,0,0,18.62,7.67c26.4,8.23,55.6,8.86,77.09,10.24,10.91.57,20.11,2.51,25.84,5.47a32.68,32.68,0,0,1,6.2,4l1.92,1.75-2.1-1.51a32.12,32.12,0,0,0-6.48-3.18c-5.84-2.2-14.73-3-25.39-2.33-21.48,1.08-50.54,4.12-80.34-1.36a135.83,135.83,0,0,1-22-6.18c-3.79-1.48-7.27-3-10.24-4.5a103.79,103.79,0,0,1-9.84-5.55A146.42,146.42,0,0,1,463.3,38.64a178.08,178.08,0,0,0,13.3,16.83,135.58,135.58,0,0,0,23.32,20.92,102.7,102.7,0,0,0,32.4,15.29c24.3,6.92,50.9,6.63,70.72,8.59a125,125,0,0,1,23.66,4.41,64.75,64.75,0,0,1,8.51,3.19,65.56,65.56,0,0,0-8.77-2.07,122.87,122.87,0,0,0-23.56-1.32c-19.45.5-45.93,4.42-73.34.4A119.43,119.43,0,0,1,490.4,92.19a157.11,157.11,0,0,1-29.67-20.41l-.68-.61c.15,1,.32,2,.49,3l.92-.73c-.11-.23,2,3,4.44,6.31A109.2,109.2,0,0,0,479,94.4a121.16,121.16,0,0,0,22.88,16.82,127,127,0,0,0,14.71,7.13,104.48,104.48,0,0,0,16,4.84c11.2,2.51,23,3.56,34.2,4.19s21.86,1.37,30.9,2.25a274.29,274.29,0,0,1,29.9,4.25,274.47,274.47,0,0,0-30,0c-9,.39-19.45,1.16-30.7,2.08s-23.65,1.61-36.25.61a118.06,118.06,0,0,1-19-3A145.26,145.26,0,0,1,494,127.89a143.4,143.4,0,0,1-21-10.42c10.9,25.88,27.4,49.36,48.72,67.68-33.17-3.71-55-9.4-73.07-24.91A156.47,156.47,0,0,0,461.23,187a118.82,118.82,0,0,0,15.24,20.14,101.42,101.42,0,0,0,16.94,14.39,82,82,0,0,0,14,7.55c3.55,1.5,5.67,2.18,5.67,2.18s-2.17-.43-5.9-1.53a83.41,83.41,0,0,1-15-6A105.14,105.14,0,0,1,473,210.82a125,125,0,0,1-18.41-19.3,160.93,160.93,0,0,1-14.15-22c0,12.27-.92,26.33-.33,31.64,2,18.6,5.21,37.05,7.94,55.56,5.28,35.71,9.74,65.13,27.41,97.91-4.81-8.93,24.43-52.78,29.74-61.1a199.92,199.92,0,0,1,45.1-50.11c37.26-29.14,84-42.26,130.84-43.05,45.77-.78,90.1,13.52,125.73,42.44,30.59,24.84,71.72,72,73.91,112.89,20.68-38,32.68-86.2,34.73-129.23C916.13,212.66,915.12,198.84,913.61,185.11Z" transform="translate(-439.88 -12)"/></svg>